
<svg xmlns="http://www.w3.org/2000/svg" xmlns:xlink="http://www.w3.org/1999/xlink" width="80" zoomAndPan="magnify" viewBox="0 0 60 60" height="80" preserveAspectRatio="xMidYMid meet" version="1.0"><defs><clipPath id="c2aec622ec"><path d="M 7.007812 22 L 27 22 L 27 44.132812 L 7.007812 44.132812 Z M 7.007812 22 " clip-rule="nonzero"/></clipPath><clipPath id="8ed929f47b"><path d="M 28.71875 15.871094 L 52.757812 15.871094 L 52.757812 44.125 L 28.71875 44.125 Z M 28.71875 15.871094 " clip-rule="nonzero"/></clipPath></defs><rect x="-6" width="72" fill="#ffffff" y="-6" height="72" fill-opacity="1"/><rect x="-6" width="72" fill="#000000" y="-6" height="72" fill-opacity="1"/><g clip-path="url(#c2aec622ec)"><path fill="#f0f0f0" d="M 17.035156 28.472656 C 19.40625 28.472656 21.328125 30.390625 21.328125 32.761719 L 21.328125 35.855469 C 21.328125 37.34375 20.117188 38.550781 18.628906 38.550781 L 12.105469 38.550781 L 12.105469 32.761719 C 12.105469 30.390625 14.027344 28.472656 16.398438 28.472656 Z M 7.007812 31.933594 L 7.007812 44.125 L 20.742188 44.125 C 23.878906 44.125 26.421875 41.582031 26.421875 38.445312 L 26.421875 31.933594 C 26.421875 26.941406 22.378906 22.898438 17.386719 22.898438 L 16.046875 22.898438 C 11.054688 22.898438 7.007812 26.941406 7.007812 31.933594 " fill-opacity="1" fill-rule="nonzero"/></g><g clip-path="url(#8ed929f47b)"><path fill="#f0f0f0" d="M 40.855469 23.292969 C 44.035156 23.292969 46.613281 25.871094 46.613281 29.050781 L 46.613281 36.707031 L 37.929688 36.707031 C 36.367188 36.707031 35.097656 35.4375 35.097656 33.871094 L 35.097656 29.050781 C 35.097656 25.871094 37.675781 23.292969 40.855469 23.292969 Z M 28.726562 28 L 28.726562 38.15625 C 28.726562 41.453125 31.402344 44.125 34.699219 44.125 L 52.980469 44.125 L 52.980469 28 C 52.980469 21.300781 47.550781 15.871094 40.855469 15.871094 C 34.15625 15.871094 28.726562 21.300781 28.726562 28 " fill-opacity="1" fill-rule="nonzero"/></g></svg>